<svg width="30" height="23" viewBox="0 0 30 23" fill="none" xmlns="http://www.w3.org/2000/svg">
<path d="M6.76501 4.21075V16.6261C6.75576 17.4066 6.39528 18.1524 5.76195 18.7015C5.12862 19.2505 4.27355 19.5585 3.38251 19.5585C2.49145 19.5585 1.63639 19.2505 1.00306 18.7015C0.369718 18.1524 0.00926658 17.4066 0 16.6261V4.21075C0.000582016 3.42499 0.357429 2.6716 0.992058 2.11628C1.62669 1.56096 2.48713 1.24918 3.38415 1.24952C3.94512 1.24822 4.49741 1.37055 4.99026 1.60526C4.99794 1.60814 5.00123 1.61167 5.00489 1.61167C5.00679 1.61349 5.00939 1.61464 5.01221 1.61487C5.29271 1.74893 5.54913 1.91847 5.77318 2.11803C6.08767 2.39247 6.33715 2.71861 6.50738 3.07774C6.67758 3.43687 6.76512 3.82191 6.76501 4.21075Z" fill="white"/>
<path d="M14.4951 6.89318V19.3054C14.4951 19.6945 14.4076 20.0797 14.2376 20.4392C14.0677 20.7987 13.8185 21.1253 13.5045 21.4004C13.1904 21.6755 12.8175 21.8938 12.4071 22.0427C11.9968 22.1916 11.557 22.2682 11.1128 22.2682C10.6686 22.2682 10.2288 22.1916 9.81844 22.0427C9.40806 21.8938 9.03522 21.6755 8.72113 21.4004C8.40704 21.1253 8.1579 20.7987 7.98792 20.4392C7.81794 20.0797 7.73047 19.6945 7.73047 19.3054V6.89318C7.73036 6.50386 7.81783 6.11832 7.98788 5.75865C8.1579 5.39894 8.40719 5.07212 8.72146 4.79683C9.03573 4.52153 9.40883 4.30316 9.81942 4.15423C10.2301 4.00527 10.6702 3.92865 11.1146 3.92874C11.2354 3.92874 11.3524 3.93515 11.4658 3.94444H11.4735C12.3034 4.02348 13.0707 4.36812 13.6283 4.91223C14.1859 5.45634 14.4946 6.16165 14.4951 6.89286V6.89318Z" fill="#EE4622"/>
<path d="M22.2695 3.36468V15.7801C22.2695 16.5659 21.9132 17.3195 21.2789 17.8751C20.6446 18.4308 19.7842 18.7429 18.8872 18.7429C17.9902 18.7429 17.1299 18.4308 16.4955 17.8751C15.8612 17.3195 15.5049 16.5659 15.5049 15.7801V3.36468C15.5049 2.97553 15.5924 2.5902 15.7626 2.23072C15.9327 1.87124 16.182 1.54465 16.4963 1.26963C16.8106 0.994615 17.1837 0.77656 17.5942 0.627932C18.0048 0.479304 18.4448 0.40302 18.889 0.403441C19.0286 0.402182 19.1681 0.410755 19.3061 0.42908H19.3134C20.0573 0.50792 20.7493 0.803666 21.2781 1.26874C21.5926 1.54381 21.842 1.87052 22.0122 2.23018C22.1823 2.58984 22.2698 2.97536 22.2695 3.36468Z" fill="white"/>
<path d="M30 6.75185V19.1644C30 19.5535 29.9125 19.9387 29.7425 20.2982C29.5725 20.6577 29.3234 20.9843 29.0093 21.2594C28.6953 21.5345 28.3224 21.7528 27.912 21.9017C27.5017 22.0506 27.0618 22.1272 26.6177 22.1272C26.1735 22.1272 25.7337 22.0506 25.3233 21.9017C24.9129 21.7528 24.5401 21.5345 24.226 21.2594C23.9119 20.9843 23.6628 20.6577 23.4928 20.2982C23.3228 19.9387 23.2354 19.5535 23.2354 19.1644V6.75185C23.2353 6.36253 23.3228 5.97706 23.4928 5.61735C23.6629 5.25767 23.9122 4.93085 24.2264 4.65559C24.5407 4.3803 24.9138 4.16195 25.3244 4.01299C25.735 3.86403 26.1751 3.78738 26.6195 3.78741C27.0671 3.78581 27.5103 3.86445 27.9219 4.01847H27.9256C27.9275 4.0203 27.9301 4.02145 27.9329 4.02168C28.3357 4.1691 28.7012 4.38475 29.0085 4.65623C29.3239 4.93062 29.574 5.25719 29.7442 5.61693C29.9144 5.97667 30.0014 6.36243 30 6.75185Z" fill="#EE4622"/>
<g style="mix-blend-mode:multiply" opacity="0.3">
<g style="mix-blend-mode:multiply" opacity="0.3">
<path d="M6.76501 7.78406V16.6261C6.75576 17.4066 6.39528 18.1523 5.76195 18.7014C5.12862 19.2505 4.27355 19.5584 3.38251 19.5584C2.49145 19.5584 1.63639 19.2505 1.00306 18.7014C0.369718 18.1523 0.00926658 17.4066 0 16.6261V16.1165C0 16.1165 0.0073176 16.1899 0.0219518 16.3245C0.0292689 16.4623 0.05122 16.6646 0.0881713 16.911C0.150501 17.2047 0.258712 17.4895 0.409757 17.7574C0.676816 18.2332 1.09265 18.6328 1.60885 18.9097C2.12505 19.1865 2.7204 19.3293 3.32562 19.3213C3.60009 19.3188 3.87305 19.2854 4.13781 19.222C4.69713 19.084 5.20143 18.8121 5.59391 18.4368C5.99584 18.055 6.2605 17.5779 6.35489 17.0652C6.36221 17.0011 6.3805 16.9498 6.38416 16.8761L6.39916 16.6581C6.40611 16.546 6.40245 16.3761 6.40611 16.2383C6.40611 15.9499 6.40977 15.6582 6.41343 15.373C6.41343 14.7994 6.43538 14.2353 6.44306 13.6873C6.46831 12.5945 6.50855 11.575 6.55611 10.7004C6.64428 8.9506 6.76501 7.78406 6.76501 7.78406Z" fill="black"/>
</g>
</g>
<g style="mix-blend-mode:overlay" opacity="0.6">
<g style="mix-blend-mode:overlay" opacity="0.6">
<path d="M5.00525 1.61167C4.87805 1.57535 4.74857 1.54539 4.61745 1.52194C4.27943 1.45331 3.93235 1.42528 3.58574 1.43861C3.47674 1.44218 3.3681 1.45181 3.26049 1.46746C3.14715 1.47966 3.03475 1.49786 2.92391 1.52194C2.16918 1.67147 1.49608 2.04373 1.01744 2.57632C0.850586 2.75541 0.710438 2.95238 0.600367 3.16247C0.495283 3.36589 0.415556 3.57863 0.362562 3.79702C0.335648 3.90813 0.315981 4.02046 0.303658 4.13353L0.292683 4.22006C0.292683 4.22326 0.289025 4.27133 0.285366 4.29377C0.281707 4.35145 0.27805 4.40914 0.271098 4.46362C0.256098 4.68796 0.230488 4.89947 0.208537 5.09497C0.163961 5.53146 0.0943604 5.96574 0 6.39611V4.21044C0.000675506 3.69639 0.153928 3.19136 0.444714 2.74488C0.735499 2.29839 1.15382 1.92582 1.65863 1.66372C2.16343 1.40162 2.73736 1.25901 3.32408 1.24989C3.9108 1.24076 4.49013 1.36544 5.00525 1.61167Z" fill="white"/>
</g>
</g>
<g style="mix-blend-mode:multiply" opacity="0.3">
<g style="mix-blend-mode:multiply" opacity="0.3">
<path d="M14.4951 10.4534V19.3053C14.4951 19.6944 14.4076 20.0797 14.2376 20.4392C14.0677 20.7987 13.8185 21.1253 13.5045 21.4004C13.1904 21.6755 12.8175 21.8937 12.4071 22.0427C11.9968 22.1916 11.557 22.2682 11.1128 22.2682C10.6686 22.2682 10.2288 22.1916 9.81844 22.0427C9.40806 21.8937 9.03522 21.6755 8.72113 21.4004C8.40704 21.1253 8.1579 20.7987 7.98792 20.4392C7.81794 20.0797 7.73047 19.6944 7.73047 19.3053V18.9464C7.73047 18.9464 7.73779 19.0201 7.75242 19.1544C7.76537 19.3485 7.79596 19.5414 7.84388 19.7313C8.0091 20.3912 8.42907 20.981 9.03291 21.4013C9.42419 21.6712 9.88107 21.8587 10.3683 21.9493C10.4928 21.9714 10.6186 21.9874 10.7451 21.9974C10.8839 22.0057 11.0231 22.0079 11.1622 22.0038C11.4378 21.9906 11.7106 21.9485 11.9747 21.8785C12.522 21.7213 13.01 21.4365 13.3866 21.0548C13.7728 20.6666 14.0197 20.1873 14.0963 19.6768C14.1179 19.5451 14.1301 19.4124 14.1329 19.2794L14.1366 18.8464C14.1366 18.558 14.1402 18.2696 14.1443 17.9846C14.1443 17.4174 14.1658 16.8566 14.1735 16.3117C14.1988 15.2282 14.239 14.2158 14.2866 13.3473C14.3744 11.6106 14.4951 10.4534 14.4951 10.4534Z" fill="black"/>
</g>
</g>
<g style="mix-blend-mode:overlay" opacity="0.6">
<g style="mix-blend-mode:overlay" opacity="0.6">
<path d="M11.4658 3.94444C11.4329 3.95118 11.3049 3.9672 11.1036 3.99284C10.9902 4.01848 10.8516 4.0377 10.7012 4.07616C10.5334 4.11907 10.3685 4.17032 10.2073 4.22967C10.0224 4.3013 9.84383 4.38498 9.67315 4.47997C9.48884 4.58691 9.31396 4.70581 9.14998 4.8357C8.98257 4.9779 8.83067 5.13346 8.69632 5.3004C8.55807 5.46974 8.44034 5.65126 8.3451 5.84201C8.25232 6.03301 8.18135 6.23161 8.13327 6.43489C8.10873 6.53652 8.09029 6.63923 8.07803 6.74256L8.05974 6.89606L8.05242 7.06304C8.02681 7.50209 7.98657 7.91199 7.93901 8.26483C7.89444 8.65999 7.82482 9.05264 7.73047 9.441V6.89318C7.73036 6.50386 7.81783 6.11832 7.98788 5.75865C8.1579 5.39894 8.40719 5.07212 8.72146 4.79683C9.03573 4.52153 9.40883 4.30316 9.81942 4.15423C10.2301 4.00527 10.6702 3.92865 11.1146 3.92874C11.2354 3.92874 11.3524 3.93515 11.4658 3.94444Z" fill="white"/>
</g>
</g>
<g style="mix-blend-mode:multiply" opacity="0.3">
<g style="mix-blend-mode:multiply" opacity="0.3">
<path d="M22.2695 4.63382V15.7801C22.2695 16.5659 21.9132 17.3195 21.2789 17.8752C20.6446 18.4308 19.7842 18.7429 18.8872 18.7429C17.9902 18.7429 17.1299 18.4308 16.4955 17.8752C15.8612 17.3195 15.5049 16.5659 15.5049 15.7801V15.5301C15.5049 15.5301 15.5122 15.6103 15.5268 15.7609C15.5467 15.9765 15.5895 16.19 15.6549 16.3986C15.7601 16.7165 15.9259 17.0165 16.1451 17.286C16.4203 17.6302 16.7788 17.917 17.1951 18.1257C17.6784 18.3715 18.2278 18.4999 18.7866 18.4978C19.0828 18.5007 19.3778 18.4639 19.6614 18.3888C19.9597 18.3163 20.2436 18.2038 20.5028 18.0555C21.0422 17.7452 21.4588 17.2963 21.6955 16.7704L21.7797 16.5717L21.8382 16.3631C21.8601 16.2928 21.8638 16.2255 21.8784 16.1583C21.8941 16.0854 21.9015 16.0113 21.9004 15.9371C21.9187 15.6487 21.9004 15.2994 21.904 14.9853C21.9077 14.338 21.9114 13.6906 21.9187 13.0528C21.9187 12.415 21.9406 11.7901 21.9479 11.1844C21.9736 9.96981 22.0138 8.83848 22.0614 7.86743C22.1488 5.92532 22.2695 4.63382 22.2695 4.63382Z" fill="black"/>
</g>
</g>
<g style="mix-blend-mode:overlay" opacity="0.6">
<g style="mix-blend-mode:overlay" opacity="0.6">
<path d="M19.3061 0.42908C19.2585 0.435489 19.1378 0.451513 18.9585 0.470742C18.8488 0.477152 18.7061 0.518493 18.5524 0.540927C18.3839 0.581685 18.2178 0.629926 18.0549 0.685463C17.8679 0.753742 17.6869 0.834083 17.5134 0.925824C17.3242 1.02718 17.1456 1.143 16.9796 1.27194C16.8915 1.33604 16.8146 1.41295 16.7345 1.48346C16.6613 1.56678 16.5768 1.64017 16.511 1.72702C16.368 1.89416 16.2465 2.07462 16.1488 2.26511C16.0478 2.45388 15.9705 2.65171 15.9183 2.85511C15.9037 2.95767 15.8671 3.03458 15.8561 3.15636L15.8378 3.32269L15.8342 3.36468V3.36788L15.8305 3.37076V3.39352L15.8268 3.47684C15.8012 3.91911 15.761 4.32932 15.7134 4.68185C15.669 5.07806 15.5993 5.4718 15.5049 5.86122V3.36468C15.5049 2.97553 15.5924 2.5902 15.7626 2.23072C15.9327 1.87124 16.182 1.54465 16.4963 1.26963C16.8106 0.994615 17.1837 0.77656 17.5942 0.627932C18.0048 0.479304 18.4448 0.40302 18.889 0.403441C19.0286 0.402182 19.1681 0.410755 19.3061 0.42908Z" fill="white"/>
</g>
</g>
<g style="mix-blend-mode:overlay" opacity="0.6">
<g style="mix-blend-mode:overlay" opacity="0.6">
<path d="M27.9219 4.01847C27.889 4.01174 27.7573 3.98931 27.5488 3.9672C27.428 3.95438 27.2817 3.94765 27.1171 3.94444C26.9336 3.94383 26.7503 3.95358 26.5683 3.97361C26.3582 4.00101 26.1504 4.04052 25.9463 4.09186C25.7264 4.15401 25.5133 4.23348 25.3097 4.32934C24.8747 4.53788 24.4966 4.82653 24.2012 5.17541C24.0501 5.35004 23.9225 5.53928 23.8207 5.73945C23.7227 5.93299 23.6479 6.13489 23.5975 6.34195C23.5702 6.44637 23.5518 6.55241 23.5427 6.65923L23.5317 6.73935L23.528 6.75537L23.5244 6.76787L23.5207 6.80986C23.5171 6.86434 23.5134 6.91561 23.5097 6.9701C23.4915 7.18161 23.4695 7.38351 23.4439 7.56619C23.3995 7.98044 23.3299 8.39229 23.2354 8.80004V6.75185C23.2353 6.36253 23.3228 5.97706 23.4928 5.61735C23.6629 5.25767 23.9122 4.93085 24.2264 4.65559C24.5407 4.3803 24.9138 4.16195 25.3244 4.01299C25.735 3.86403 26.1751 3.78738 26.6195 3.78741C27.0671 3.78581 27.5103 3.86445 27.9219 4.01847Z" fill="white"/>
</g>
</g>
<g style="mix-blend-mode:multiply" opacity="0.3">
<g style="mix-blend-mode:multiply" opacity="0.3">
<path d="M30 11.2036V19.1644C30 19.5534 29.9125 19.9387 29.7425 20.2982C29.5725 20.6576 29.3234 20.9843 29.0093 21.2594C28.6953 21.5345 28.3224 21.7528 27.912 21.9016C27.5017 22.0505 27.0618 22.1272 26.6177 22.1272C26.1735 22.1272 25.7337 22.0505 25.3233 21.9016C24.9129 21.7528 24.5401 21.5345 24.226 21.2594C23.9119 20.9843 23.6628 20.6576 23.4928 20.2982C23.3228 19.9387 23.2354 19.5534 23.2354 19.1644C23.2354 19.1644 23.2463 19.2317 23.2683 19.3599C23.2775 19.4358 23.2946 19.5109 23.3195 19.5842C23.3421 19.6856 23.3739 19.7852 23.4146 19.8822C23.6002 20.3739 23.9324 20.8132 24.3769 21.1547C24.8214 21.4961 25.362 21.7273 25.9427 21.8243C26.0634 21.8436 26.1768 21.85 26.2976 21.8628L26.5024 21.866H26.6378L26.6854 21.8596C26.9434 21.8478 27.1988 21.8091 27.4463 21.7442C27.958 21.6054 28.4204 21.3537 28.789 21.0132C28.9769 20.8383 29.1391 20.6436 29.272 20.4335C29.398 20.2205 29.4927 19.9943 29.5537 19.7605C29.5863 19.6467 29.6095 19.531 29.6232 19.4143L29.6378 19.2156V19.1644L29.6415 19.1288V19.0297C29.6415 18.7605 29.6451 18.491 29.6488 18.2254C29.6488 17.6966 29.6707 17.171 29.678 16.6678C29.7037 15.6551 29.7439 14.7097 29.7915 13.9021C29.8793 12.2801 30 11.2036 30 11.2036Z" fill="black"/>
</g>
</g>
</svg>
