<svg width="30" height="30" viewBox="0 0 30 30" fill="none" xmlns="http://www.w3.org/2000/svg">
<path d="M22.9688 5.26342V3.57422C22.9688 3.25061 22.7064 2.98828 22.3828 2.98828H14.1211C13.7975 2.98828 13.5352 3.25061 13.5352 3.57422C13.5352 3.89783 13.7975 4.16016 14.1211 4.16016H21.7969V25.8398H1.17188V4.16016H8.84766C9.17121 4.16016 9.43359 3.89783 9.43359 3.57422C9.43359 3.25061 9.17121 2.98828 8.84766 2.98828H0.585938C0.262383 2.98828 0 3.25061 0 3.57422V26.4258C0 26.7494 0.262383 27.0117 0.585938 27.0117H22.3828C22.7064 27.0117 22.9688 26.7494 22.9688 26.4258V24.7366C27.0017 23.3983 30 19.5962 30 15C30 10.4072 27.005 6.60275 22.9688 5.26342ZM22.9688 23.4935V6.50648C26.4548 7.8307 28.8281 11.2177 28.8281 15C28.8281 18.7823 26.4548 22.1694 22.9688 23.4935Z" fill="#EE4622"/>
<path d="M7.38281 10.6055V19.1239C7.03781 18.9238 6.63768 18.8086 6.21094 18.8086C4.91859 18.8086 3.86719 19.8601 3.86719 21.1524C3.86719 22.4447 4.91859 23.4961 6.21094 23.4961C7.50328 23.4961 8.55469 22.4447 8.55469 21.1524V14.5178L16.1719 11.471V15.6083C15.8269 15.4082 15.4267 15.293 15 15.293C13.7077 15.293 12.6562 16.3444 12.6562 17.6368C12.6562 18.9291 13.7077 19.9805 15 19.9805C16.2923 19.9805 17.3438 18.9291 17.3438 17.6368C17.3438 17.0307 17.3438 7.73261 17.3438 7.0899C17.3438 6.89549 17.2473 6.71373 17.0863 6.60468C16.9253 6.4957 16.7208 6.47355 16.5402 6.54586L7.75113 10.0615C7.52865 10.1505 7.38281 10.3659 7.38281 10.6055ZM6.21094 22.3243C5.56477 22.3243 5.03906 21.7986 5.03906 21.1524C5.03906 20.5062 5.56477 19.9805 6.21094 19.9805C6.85711 19.9805 7.38281 20.5062 7.38281 21.1524C7.38281 21.7986 6.85711 22.3243 6.21094 22.3243ZM15 18.8086C14.3538 18.8086 13.8281 18.2829 13.8281 17.6368C13.8281 16.9906 14.3538 16.4649 15 16.4649C15.6462 16.4649 16.1719 16.9906 16.1719 17.6368C16.1719 18.2829 15.6462 18.8086 15 18.8086ZM16.1719 7.95539V10.2088L8.55469 13.2557V11.0023L16.1719 7.95539Z" fill="#EE4622"/>
<path d="M11.4844 4.16016C11.808 4.16016 12.0703 3.89782 12.0703 3.57422C12.0703 3.25061 11.808 2.98828 11.4844 2.98828C11.1608 2.98828 10.8984 3.25061 10.8984 3.57422C10.8984 3.89782 11.1608 4.16016 11.4844 4.16016Z" fill="#EE4622"/>
</svg>
