<svg width="28" height="36" viewBox="0 0 28 36" fill="none" xmlns="http://www.w3.org/2000/svg">
<path d="M27.9999 28.4832C27.9999 25.8571 25.9406 23.6821 23.2802 23.3439C23.2561 23.3392 23.2312 23.3365 23.2061 23.3349C22.9931 23.3107 22.7768 23.2967 22.5572 23.2967H18.2207V22.8258C18.8978 23.1133 19.7041 23.0968 20.3889 22.7202C20.9064 22.4355 21.2872 21.979 21.467 21.4475C22.052 21.4195 22.6132 21.1873 23.0353 20.7852C23.4573 20.3829 23.701 19.8483 23.7303 19.2907C24.288 19.1194 24.7671 18.7564 25.0659 18.2635C25.3645 17.7706 25.4548 17.1941 25.3318 16.6482C25.8238 16.3452 26.1878 15.8766 26.3423 15.3269C26.4969 14.7772 26.4275 14.1979 26.1605 13.7011C26.5534 13.287 26.7777 12.7446 26.7777 12.1756C26.7777 11.6065 26.5534 11.0641 26.1605 10.6501C26.4275 10.1532 26.4969 9.57393 26.3423 9.02429C26.1878 8.47459 25.8238 8.00602 25.3318 7.70291C25.4548 7.15714 25.3644 6.58057 25.0659 6.08768C24.7671 5.59458 24.2882 5.23169 23.7304 5.06041C23.701 4.50283 23.4573 3.96817 23.0353 3.56598C22.6132 3.16372 22.0522 2.93155 21.467 2.90357C21.2871 2.37214 20.9062 1.9156 20.3889 1.63098C19.8717 1.34635 19.2668 1.26029 18.6939 1.37743C18.3758 0.908652 17.8841 0.561869 17.3072 0.414634C16.7304 0.267329 16.1227 0.333423 15.6011 0.587815C15.5963 0.583526 15.5914 0.579377 15.5865 0.575229C15.5849 0.573752 15.5831 0.572416 15.5815 0.57101C15.5499 0.544291 15.5175 0.518557 15.4848 0.493736L15.4707 0.483189C15.4392 0.459635 15.4071 0.436853 15.373 0.414002L15.3601 0.405283C15.2841 0.355009 15.2051 0.308884 15.1254 0.268173C15.1229 0.266907 15.1204 0.265712 15.1179 0.264376L15.1138 0.262407C15.0789 0.244899 15.0435 0.228235 15.0053 0.21122L14.9778 0.199407C14.9465 0.185977 14.9147 0.17311 14.8852 0.162001L14.85 0.148712C14.8162 0.136407 14.7819 0.124875 14.7448 0.113204L14.7225 0.106102C14.679 0.0928832 14.6352 0.08093 14.5902 0.0698909C14.5823 0.0679924 14.5742 0.0661643 14.5685 0.0650393C14.5325 0.0566721 14.4961 0.049008 14.4589 0.042047L14.4171 0.0349455C14.3862 0.0297423 14.3551 0.0250313 14.3245 0.0211641C14.3081 0.0190548 14.2918 0.0169454 14.2783 0.0155391C14.2462 0.0119532 14.2141 0.00914066 14.183 0.00689065L14.1755 0.00632815C14.1635 0.00534377 14.1515 0.00450002 14.1384 0.00379689C14.0469 -0.00126563 13.9543 -0.00126563 13.8608 0.00379689C13.8487 0.00450002 13.8366 0.00541408 13.8246 0.00632815L13.8183 0.00682034C13.786 0.00914066 13.7539 0.0119532 13.7248 0.0152579C13.7083 0.0169454 13.6921 0.0190548 13.6764 0.0210938C13.6451 0.0251017 13.6139 0.0297423 13.5813 0.0352267L13.5404 0.0423283C13.5041 0.0491486 13.4681 0.0566018 13.4323 0.064969C13.4248 0.0665159 13.4172 0.0682737 13.4093 0.0701722C13.3648 0.08093 13.3211 0.0929535 13.2776 0.106172L13.2528 0.113977C13.2181 0.124875 13.1839 0.136407 13.1496 0.148922L13.1177 0.160876C13.0854 0.17311 13.0537 0.185907 13.0251 0.198141L12.9926 0.212134C12.957 0.228024 12.9219 0.244548 12.8873 0.261915C12.8854 0.262829 12.8835 0.263743 12.8823 0.264306C12.8798 0.265571 12.8773 0.266837 12.8748 0.268103C12.7951 0.308814 12.7162 0.354939 12.6447 0.402259L12.6259 0.414705C12.5932 0.436713 12.5609 0.459564 12.5304 0.482416L12.5157 0.493385C12.4826 0.518416 12.4502 0.544221 12.4187 0.570869C12.417 0.572276 12.4153 0.573612 12.4136 0.575088C12.4088 0.579237 12.4038 0.583385 12.399 0.587674C11.8776 0.333283 11.2698 0.267259 10.693 0.414564C10.1162 0.561799 9.62438 0.908652 9.30635 1.37736C8.73361 1.26022 8.12848 1.34635 7.6113 1.6309C7.0939 1.91553 6.713 2.37207 6.53325 2.9035C5.94804 2.93155 5.38703 3.16365 4.96497 3.56584C4.5429 3.9681 4.29925 4.50276 4.26981 5.06034C3.71205 5.23169 3.23309 5.59458 2.93432 6.08761C2.6357 6.5805 2.54539 7.15707 2.66839 7.70284C2.17645 8.00581 1.81238 8.47452 1.65794 9.02415C1.50328 9.57386 1.57272 10.1532 1.83968 10.65C1.44683 11.064 1.22252 11.6064 1.22252 12.1755C1.22252 12.7446 1.44683 13.287 1.83968 13.701C1.57272 14.1978 1.50328 14.7771 1.65794 15.3268C1.81253 15.8765 2.17645 16.3451 2.66839 16.6482C2.54539 17.194 2.63578 17.7706 2.93432 18.2634C3.23309 18.7564 3.7122 19.1194 4.26988 19.2907C4.29918 19.8482 4.5429 20.3828 4.96497 20.7851C5.38711 21.1873 5.94812 21.4195 6.53325 21.4474C6.71308 21.9789 7.0939 22.4354 7.6113 22.7201C7.98547 22.926 8.39573 23.0243 8.80149 23.0243C9.13841 23.0243 9.47208 22.9562 9.77926 22.8258V23.2967L5.44289 23.2969C5.22411 23.2969 5.0088 23.3107 4.79673 23.3347C4.77009 23.3363 4.74375 23.3391 4.71822 23.3443C2.05861 23.6831 0 25.8578 0 28.4834V35.4727C0 35.764 0.247706 36 0.553409 36H6.11687C6.42257 36 6.67028 35.764 6.67028 35.4727C6.67028 35.1813 6.42257 34.9453 6.11687 34.9453H5.38519V24.353C5.40445 24.3528 5.42348 24.3516 5.44274 24.3516L9.77911 24.3514V34.9452H8.32069C8.01499 34.9452 7.76728 35.1813 7.76728 35.4726C7.76728 35.7639 8.01499 35.9999 8.32069 35.9999H27.4466C27.5934 35.9999 27.7341 35.9444 27.838 35.8455C27.9417 35.7466 28 35.6125 28 35.4726L27.9999 28.4832ZM4.27837 34.9453H1.10682V28.4835C1.10682 26.5896 2.45138 24.9904 4.27837 24.5043V34.9453ZM17.1138 34.9454H10.8859V25.9534C11.5405 26.6353 12.438 27.1012 13.4463 27.2277V27.4584C12.7373 27.6806 12.2239 28.317 12.2239 29.066C12.2239 29.9991 13.0205 30.7581 13.9997 30.7581C14.9788 30.7581 15.7754 29.999 15.7754 29.066C15.7754 28.3171 15.262 27.6806 14.5531 27.4585V27.2278C15.5615 27.1013 16.4591 26.6353 17.1137 25.9534V34.9454H17.1138ZM13.9998 28.4285C14.3686 28.4285 14.6687 28.7144 14.6687 29.0659C14.6687 29.4174 14.3686 29.7034 13.9998 29.7034C13.6309 29.7034 13.3308 29.4174 13.3308 29.0659C13.3308 28.7144 13.6309 28.4285 13.9998 28.4285ZM17.1138 23.2416C17.1138 24.8776 15.7169 26.2087 13.9999 26.2087C12.2828 26.2087 10.886 24.8776 10.886 23.2415V21.7146C10.886 21.7131 10.886 21.7117 10.886 21.7103V21.2848C11.816 21.7551 12.8758 22.022 14 22.022C15.1241 22.022 16.1838 21.7551 17.1138 21.2849V23.2416ZM14 20.9673C10.9349 20.9673 8.44134 18.5911 8.44134 15.6704V10.3732H19.5587V15.6704C19.5587 18.5911 17.0651 20.9673 14 20.9673ZM8.44126 9.31848V8.04357H19.5587V9.31848H8.44126ZM18.2206 20.5827C19.5781 19.5216 20.4895 17.9606 20.6423 16.1978H21.3344C22.3137 16.1978 23.1103 15.4386 23.1103 14.5056V12.1759C23.1103 11.2428 22.3136 10.4837 21.3344 10.4837H20.6655V9.8473C20.6655 9.84681 20.6656 9.84639 20.6656 9.84597C20.6656 9.84548 20.6655 9.84505 20.6655 9.84463V7.5163C20.6655 7.22499 20.4178 6.98895 20.1121 6.98895H7.8877C7.58208 6.98895 7.3343 7.22499 7.3343 7.5163C7.3343 7.51721 7.33444 7.51812 7.33444 7.51904V9.84456C7.33444 9.84505 7.33437 9.84548 7.33437 9.8459C7.33437 9.84639 7.33444 9.84681 7.33444 9.84723V10.4835H6.66533C5.6861 10.4835 4.88956 11.2427 4.88956 12.1757V14.5055C4.88956 15.4385 5.68617 16.1977 6.66533 16.1977H7.35761C7.51043 17.9605 8.42163 19.5214 9.77911 20.5824V21.5405C9.38494 21.9829 8.70476 22.1041 8.16456 21.8067C7.80196 21.6072 7.56437 21.25 7.52917 20.8512C7.51604 20.7032 7.43826 20.5675 7.31467 20.4772C7.19115 20.3869 7.03332 20.3502 6.88006 20.3764C6.4667 20.4469 6.04308 20.3211 5.74749 20.0393C5.45182 19.7576 5.31959 19.3542 5.39367 18.9601C5.4212 18.8141 5.38283 18.6638 5.28801 18.546C5.19319 18.4283 5.05063 18.3541 4.89553 18.3416C4.47693 18.3079 4.10209 18.0816 3.89268 17.736C3.68342 17.3907 3.66512 16.9683 3.84361 16.6062C3.9098 16.4719 3.91356 16.3173 3.85402 16.1802C3.79447 16.0431 3.67707 15.9363 3.5306 15.8859C3.13562 15.7501 2.83508 15.4391 2.72683 15.0538C2.61851 14.6686 2.71554 14.2561 2.98634 13.9504C3.08677 13.837 3.13237 13.6885 3.11208 13.5415C3.09179 13.3943 3.00737 13.2622 2.87957 13.1774C2.53491 12.9489 2.32919 12.5743 2.32919 12.1755C2.32919 11.7767 2.53491 11.4021 2.87957 11.1736C3.00737 11.0888 3.09179 10.9567 3.11208 10.8095C3.13237 10.6624 3.08677 10.514 2.98634 10.4006C2.71554 10.0949 2.61859 9.68235 2.72683 9.29711C2.83515 8.912 3.13562 8.60094 3.5306 8.4651C3.677 8.41475 3.79447 8.30795 3.85409 8.17084C3.91364 8.03373 3.90987 7.87911 3.84361 7.74474C3.66505 7.3827 3.68342 6.96033 3.89268 6.61496C4.10202 6.26944 4.47693 6.04303 4.89553 6.00942C5.05063 5.99691 5.19319 5.92273 5.28801 5.80502C5.38275 5.68725 5.4212 5.53692 5.39367 5.39088C5.31959 4.99685 5.45182 4.59332 5.74749 4.31158C6.04301 4.02991 6.46625 3.90405 6.87998 3.97457C7.03295 4.00073 7.191 3.96416 7.31459 3.87381C7.43812 3.78353 7.51596 3.64769 7.5291 3.49989C7.56444 3.101 7.80196 2.74375 8.16456 2.54427C8.52693 2.34493 8.97003 2.32742 9.35025 2.49744C9.49126 2.56065 9.65352 2.56424 9.79734 2.50735C9.94115 2.45061 10.0533 2.33874 10.1061 2.19917C10.2487 1.82286 10.5751 1.53647 10.9793 1.43326C11.3833 1.33004 11.8165 1.42243 12.1374 1.68048C12.3572 1.85724 12.6823 1.84402 12.8857 1.65038C12.9092 1.62788 12.9305 1.60348 12.9493 1.57768C12.9631 1.5589 12.9773 1.54069 12.989 1.52642C12.9905 1.52466 12.9932 1.52143 12.9957 1.51826C13.0415 1.46328 13.092 1.41202 13.1457 1.36604C13.1472 1.36477 13.1486 1.36358 13.1501 1.36231C13.1677 1.3474 13.1858 1.33306 13.2046 1.31886L13.2119 1.31337C13.2291 1.30065 13.2464 1.28827 13.2623 1.27758C13.264 1.27646 13.2699 1.27252 13.2715 1.2714C13.3111 1.24517 13.3519 1.22119 13.3927 1.2001C13.3956 1.19862 13.3987 1.19715 13.4016 1.19567C13.4211 1.18582 13.4408 1.17661 13.4586 1.1686L13.4765 1.16093C13.4929 1.1539 13.5094 1.14729 13.5289 1.13984L13.5452 1.13372C13.5634 1.12711 13.5818 1.121 13.5998 1.1153L13.6133 1.11087C13.6345 1.10447 13.6559 1.09857 13.677 1.09329C13.6796 1.09273 13.6823 1.09217 13.6837 1.09182C13.6865 1.09118 13.6895 1.09048 13.6924 1.08985C13.7125 1.08507 13.7329 1.08078 13.7524 1.07712L13.7757 1.07325C13.7921 1.07051 13.8084 1.06798 13.8258 1.0658L13.852 1.06264C13.8687 1.06074 13.8856 1.0594 13.9036 1.05814L13.9248 1.05645C13.9745 1.05385 14.0265 1.05385 14.074 1.05645L14.0975 1.05821C14.1143 1.05947 14.1312 1.06074 14.1508 1.06292L14.1749 1.06587C14.1915 1.06798 14.2079 1.07051 14.2225 1.07304L14.2465 1.07698C14.267 1.08085 14.2873 1.08507 14.3075 1.08992C14.3104 1.09062 14.3133 1.09132 14.3162 1.09189C14.3174 1.09217 14.3199 1.09273 14.3226 1.09329C14.3441 1.09864 14.3654 1.10454 14.3861 1.11087L14.3996 1.11523C14.4181 1.12107 14.4365 1.12718 14.4541 1.13358L14.4737 1.14097C14.4905 1.14729 14.5069 1.15397 14.5261 1.1622L14.5389 1.16768C14.5585 1.17633 14.5776 1.18533 14.5966 1.19483C14.601 1.19708 14.605 1.19911 14.6077 1.20045C14.6484 1.2214 14.689 1.24531 14.7284 1.2714C14.7294 1.2721 14.7347 1.27576 14.7358 1.27639C14.7534 1.28827 14.7709 1.30065 14.7889 1.31401L14.7957 1.31907C14.8141 1.33299 14.8322 1.34733 14.8497 1.36224C14.8512 1.36343 14.8527 1.3647 14.8542 1.36597C14.9082 1.41209 14.9587 1.46349 15.0045 1.51869C15.0059 1.5203 15.0071 1.52171 15.0076 1.52248C15.0225 1.54048 15.0368 1.5589 15.0506 1.57761C15.0694 1.60341 15.0907 1.62781 15.1142 1.65031C15.3176 1.84395 15.6426 1.8571 15.8625 1.6804C16.1834 1.42236 16.6161 1.3299 17.0206 1.43319C17.4248 1.5364 17.7512 1.82272 17.8937 2.1991C17.9465 2.3386 18.0586 2.45054 18.2025 2.50728C18.3464 2.56417 18.5086 2.56051 18.6496 2.49737C19.0297 2.32721 19.4729 2.34479 19.8353 2.5442C20.1979 2.74367 20.4355 3.10093 20.4708 3.49982C20.4839 3.64762 20.5617 3.78346 20.6853 3.87374C20.8088 3.96416 20.9666 4.00066 21.1199 3.9745C21.5336 3.90412 21.9568 4.02984 22.2524 4.31158C22.548 4.59325 22.6803 4.99671 22.6062 5.39081C22.5787 5.53685 22.617 5.68718 22.7118 5.80495C22.8067 5.92266 22.9492 5.99684 23.1043 6.00935C23.5229 6.04303 23.8978 6.26937 24.1072 6.61489C24.3164 6.96026 24.3348 7.38263 24.1562 7.74467C24.0901 7.87897 24.0863 8.03359 24.1458 8.17077C24.2054 8.30781 24.3228 8.41468 24.4692 8.46502C24.8642 8.60087 25.1648 8.91186 25.273 9.29711C25.3813 9.68235 25.2843 10.0949 25.0135 10.4005C24.9131 10.5139 24.8675 10.6624 24.8878 10.8095C24.9081 10.9566 24.9925 11.0887 25.1203 11.1735C25.4649 11.4021 25.6707 11.7766 25.6707 12.1754C25.6707 12.5742 25.4649 12.9488 25.1203 13.1773C24.9925 13.2621 24.9081 13.3942 24.8878 13.5414C24.8675 13.6885 24.9131 13.8369 25.0135 13.9503C25.2843 14.2561 25.3813 14.6686 25.273 15.0538C25.1647 15.439 24.8642 15.75 24.4692 15.8858C24.3229 15.9362 24.2054 16.043 24.1458 16.1801C24.0862 16.3171 24.09 16.4718 24.1562 16.6061C24.3347 16.9682 24.3164 17.3907 24.1072 17.736C23.8978 18.0815 23.5229 18.3079 23.1043 18.3415C22.9491 18.354 22.8067 18.4282 22.7118 18.5459C22.6171 18.6637 22.5787 18.814 22.6062 18.9601C22.6803 19.3541 22.548 19.7575 22.2524 20.0392C21.9568 20.321 21.5337 20.447 21.1198 20.3764C20.9666 20.35 20.8086 20.3867 20.6852 20.4771C20.5616 20.5675 20.4837 20.7032 20.4707 20.8511C20.4355 21.2499 20.1979 21.6071 19.8353 21.8067C19.2951 22.1039 18.6146 21.9827 18.2205 21.5401V20.5827H18.2206ZM20.6655 15.143V11.5383H21.3344C21.7034 11.5383 22.0035 11.8242 22.0035 12.1757V14.5055C22.0035 14.857 21.7034 15.143 21.3344 15.143H20.6655ZM5.99637 14.5055V12.1757C5.99637 11.8241 6.29647 11.5382 6.66533 11.5382H7.33444V15.1431H6.66533V15.143C6.29647 15.143 5.99637 14.857 5.99637 14.5055ZM22.6147 34.9453H18.2206V24.3515H22.557C22.5764 24.3515 22.5954 24.3526 22.6147 24.3529V34.9453H22.6147ZM23.7216 34.9453V24.5041C25.5485 24.9902 26.893 26.5895 26.893 28.4833L26.8932 34.9453H23.7216Z" fill="#EE4622"/>
<path d="M15.2225 16.3074H12.7776C12.4719 16.3074 12.2242 16.5434 12.2242 16.8347C12.2242 17.126 12.4719 17.3621 12.7776 17.3621H15.2225C15.5282 17.3621 15.7759 17.126 15.7759 16.8347C15.7759 16.5434 15.5282 16.3074 15.2225 16.3074Z" fill="#EE4622"/>
<path d="M11.5548 12.7217C11.8713 12.7217 12.1278 12.4773 12.1278 12.1757C12.1278 11.8741 11.8713 11.6296 11.5548 11.6296C11.2383 11.6296 10.9818 11.8741 10.9818 12.1757C10.9818 12.4773 11.2383 12.7217 11.5548 12.7217Z" fill="#EE4622"/>
<path d="M16.4447 12.7217C16.7612 12.7217 17.0177 12.4773 17.0177 12.1757C17.0177 11.8741 16.7612 11.6296 16.4447 11.6296C16.1282 11.6296 15.8717 11.8741 15.8717 12.1757C15.8717 12.4773 16.1282 12.7217 16.4447 12.7217Z" fill="#EE4622"/>
</svg>
